<?xml version="1.0" standalone="no"?><!DOCTYPE svg PUBLIC "-//W3C//DTD SVG 1.1//EN" "http://www.w3.org/Graphics/SVG/1.1/DTD/svg11.dtd"><svg t="1739575662180" class="icon" viewBox="0 0 1024 1024" version="1.1" xmlns="http://www.w3.org/2000/svg" p-id="16032" xmlns:xlink="http://www.w3.org/1999/xlink" width="32" height="32"><path d="M955.733333 1024h-400.497777L291.271111 204.8h664.462222c37.701404 0 68.266667 30.565262 68.266667 68.266667v682.666666c0 37.701404-30.565262 68.266667-68.266667 68.266667z" fill="#D9D9D9" p-id="16033"></path><path d="M68.266667 0h400.497777l263.964445 828.302222H68.266667c-37.701404 0-68.266667-30.565262-68.266667-68.266666V68.266667C0 30.565262 30.565262 0 68.266667 0z" fill="#4F8BF5" p-id="16034"></path><path d="M555.235556 1024l177.493333-195.697778h-239.707022z" fill="#4252B8" p-id="16035"></path><path d="M756.954453 614.286222c32.768-39.207822 56.269938-82.120249 70.514916-128.73728h-203.671325l-10.922666-34.998044h93.5936V387.367822h58.481778v63.183076h194.910435v34.998044h-84.923733c-12.875093 53.812338-42.411804 107.597369-88.610134 161.355094 31.794062 33.66912 72.590222 72.480996 122.38848 116.440177-10.613191 11.377778-21.877191 22.345956-33.778346 32.904534-46.430436-43.945529-85.610951-83.244373-117.550649-117.891983-16.707129 17.03936-35.089067 34.074169-55.150365 51.108978 0 2.17088-4.983467-13.853582-14.941297-48.068835a500.258133 500.258133 0 0 0 40.79616-35.871858c-41.565298-48.3328-66.141298-85.77024-73.741654-112.303218h50.50368c6.398862 20.748516 23.765902 47.768462 52.10112 81.064391z" fill="#617D8B" p-id="16036"></path><path d="M1024 682.666667L546.133333 204.8h409.6c37.701404 0 68.266667 30.565262 68.266667 68.266667v409.6z" fill="#FFFFFF" opacity=".192" p-id="16037"></path><path d="M291.271111 445.048604V387.367822h145.439858V440.502044c-2.494009 36.445298-38.902898 130.025244-145.439858 130.025245-119.088924 0-159.002169-97.962667-159.002169-159.762205 0-61.804089 47.490844-152.293831 159.002169-152.293831 37.651342 0 71.356871 13.202773 101.112036 39.60832L347.7504 343.472356c-12.611129-13.726151-31.439076-20.589227-56.479289-20.589227-45.056 0-90.394169 33.901227-90.394169 91.272533 0 97.848889 135.877973 136.06912 171.677014 30.897494H291.271111z" fill="#FFFFFF" p-id="16038"></path></svg>