<?xml version="1.0" standalone="no"?><!DOCTYPE svg PUBLIC "-//W3C//DTD SVG 1.1//EN" "http://www.w3.org/Graphics/SVG/1.1/DTD/svg11.dtd"><svg t="1739521096323" class="icon" viewBox="0 0 1024 1024" version="1.1" xmlns="http://www.w3.org/2000/svg" p-id="4289" xmlns:xlink="http://www.w3.org/1999/xlink" width="32" height="32"><path d="M878.340339 1024H548.563664l0.434805-38.423027a109.845463 109.845463 0 0 0-219.690925 0v1.373068l0.446247 37.049959H0V693.914384h36.615154a109.845463 109.845463 0 0 0 0-219.690925H0V145.659661h259.521348a183.178751 183.178751 0 0 1 358.56534 0h260.253651v256.306079c83.379572 17.0947 146.300426 91.068754 146.300426 179.379929s-62.932296 162.285229-146.300426 179.37993z m-259.42981-73.230309h186.199502V691.328439h36.615154a109.845463 109.845463 0 0 0 0-219.690925h-36.615154V218.889969H548.929816l-0.205961-36.409194a109.845463 109.845463 0 0 0-219.690925 0l-0.20596 36.409194H73.230309v185.718928c83.528321 17.003162 146.460617 91.000101 146.460617 179.425698S156.678534 746.457131 73.230309 763.460293v187.309398h186.096521c16.305186-84.375046 90.725487-148.291375 179.757523-148.291374s163.509548 63.916329 179.814734 148.291374z" p-id="4290"></path></svg>