<?xml version="1.0" standalone="no"?><!DOCTYPE svg PUBLIC "-//W3C//DTD SVG 1.1//EN" "http://www.w3.org/Graphics/SVG/1.1/DTD/svg11.dtd"><svg t="1739609416029" class="icon" viewBox="0 0 1024 1024" version="1.1" xmlns="http://www.w3.org/2000/svg" p-id="56952" xmlns:xlink="http://www.w3.org/1999/xlink" width="16" height="16"><path d="M0 0v1024h1024V0H0z m242.72896 801.792c-8.78592 9.25696-20.55168 13.96736-35.46112 13.96736h-27.77088v-73.216h13.81376v60.04736h12.544c23.07072 0 35.47136-12.24704 35.47136-41.74848 0-29.50144-12.40064-41.73824-35.47136-41.73824h-1.10592v-13.17888h2.51904c14.90944 0 26.6752 4.7104 35.46112 13.96736 8.93952 9.25696 13.34272 22.90688 13.34272 40.94976 0 18.03264-4.4032 31.68256-13.34272 40.94976z m139.84768-240.72192l-9.8816-29.3376h-42.99776l-9.8816 29.3376h-14.27456l39.0656-109.83424h6.58432v17.88928l-16.93696 49.42848h33.88416l-4.80256-13.98784h13.40416l20.10112 56.50432h-14.26432z m163.18464 242.92352c-7.80288 9.32864-17.69472 14.17216-29.81888 14.40768v-13.19936c8.192-0.24576 14.7968-3.65568 19.78368-10.31168 5.18144-7.05536 7.69024-17.88928 7.69024-32.63488 0-14.7456-2.5088-25.56928-7.69024-32.48128-5.18144-7.05536-12.0832-10.50624-20.71552-10.50624-8.63232 0-15.53408 3.45088-20.70528 10.50624-5.18144 6.912-7.69024 17.73568-7.69024 32.48128 0 6.37952 0.50176 11.97056 1.44384 16.896h-14.336a97.23904 97.23904 0 0 1-1.39264-16.896c0-18.04288 3.92192-32 11.9296-41.5744 7.99744-9.728 18.19648-14.592 30.75072-14.592 12.55424 0 22.75328 4.864 30.75072 14.592 8.00768 9.5744 11.9296 23.54176 11.9296 41.5744 0 18.04288-3.92192 32-11.9296 41.73824z m1.71008-488.56064a87826.3808 87826.3808 0 0 0-32.17408-51.77344H496.9472v51.77344h-13.81376v-85.4528h13.81376v20.49024h24.94464c11.776 0 17.73568-5.33504 17.73568-15.85152 0-10.51648-5.95968-15.85152-17.73568-15.85152h-5.94944v-13.17888h5.64224c20.09088 0 32.33792 10.04544 32.33792 29.0304 0 15.53408-7.70048 24.94464-22.91712 28.08832l32.79872 52.71552-16.3328 0.01024z m155.2896 245.63712h-15.06304l-45.9776-84.736v64.83968H627.9168v-89.93792h15.06304l45.9776 84.736v-84.736h13.81376v109.83424z m141.74208 255.35488h-13.80352v-80.49664l-19.1488 48.95744h-10.35264l-19.13856-48.95744v80.49664h-13.80352v-92.19072h21.52448l16.59904 43.23328 23.37792-60.8768h14.7456v109.83424z" fill="#231815" p-id="56953"></path></svg>