<?xml version="1.0" standalone="no"?><!DOCTYPE svg PUBLIC "-//W3C//DTD SVG 1.1//EN" "http://www.w3.org/Graphics/SVG/1.1/DTD/svg11.dtd"><svg t="1739609404443" class="icon" viewBox="0 0 1024 1024" version="1.1" xmlns="http://www.w3.org/2000/svg" p-id="55650" xmlns:xlink="http://www.w3.org/1999/xlink" width="16" height="16"><path d="M762 98H264c-91.3 0-166 74.7-166 166v498c0 91.3 74.7 166 166 166h498c91.3 0 166-74.7 166-166V264c0-91.3-74.7-166-166-166zM311.43 797.57a94.86 94.86 0 1 1 94.86-94.86 94.86 94.86 0 0 1-94.86 94.86z m0-391.29a94.86 94.86 0 1 1 94.86-94.86 94.86 94.86 0 0 1-94.86 94.87zM513 607.86A94.86 94.86 0 1 1 607.86 513 94.86 94.86 0 0 1 513 607.86z m201.57 201.57a94.86 94.86 0 1 1 94.86-94.86 94.86 94.86 0 0 1-94.86 94.86z m0-403.14a94.86 94.86 0 1 1 94.86-94.86 94.86 94.86 0 0 1-94.86 94.86z" p-id="55651"></path></svg>