<?xml version="1.0" standalone="no"?><!DOCTYPE svg PUBLIC "-//W3C//DTD SVG 1.1//EN" "http://www.w3.org/Graphics/SVG/1.1/DTD/svg11.dtd"><svg t="1739609516917" class="icon" viewBox="0 0 1024 1024" version="1.1" xmlns="http://www.w3.org/2000/svg" p-id="59100" xmlns:xlink="http://www.w3.org/1999/xlink" width="16" height="16"><path d="M512 0c100.2496 0 186.9824 115.2 229.0176 282.9824C908.8 324.9664 1024 411.7504 1024 512c0 94.4128-102.2464 176.9472-254.464 221.2864l48.896 48.8448a102.4 102.4 0 1 1-36.2496 36.1984l-48.8448-48.8448C688.9472 921.7024 606.464 1024 512 1024c-94.4128 0-176.9472-102.2464-221.2864-254.464l-48.8448 48.896a102.4 102.4 0 1 1-36.1984-36.2496l48.8448-48.8448C102.2976 688.9472 0 606.464 0 512c0-100.2496 115.2-186.9824 282.9824-229.0176C324.9664 115.2 411.7504 0 512 0z m172.7488 753.0496l-5.1712 0.9216A985.856 985.856 0 0 1 512 768c-60.6208 0-118.784-5.2736-172.8-14.9504C377.2928 885.76 444.16 972.8 512 972.8c67.7888 0 134.7072-87.04 172.7488-219.7504zM512 665.6a152.8832 152.8832 0 0 1-88.9344-28.3648L356.2496 704c48.4352 8.192 100.864 12.8 155.7504 12.8 54.9376 0 107.3152-4.608 155.8016-12.8l-66.816-66.816c-25.088 17.92-55.808 28.416-88.9856 28.416z m241.0496-326.3488l0.9216 5.1712C763.0848 396.9536 768 453.3248 768 512c0 60.6208-5.2736 118.784-14.9504 172.8C885.76 646.7072 972.8 579.84 972.8 512c0-67.7888-87.04-134.7072-219.7504-172.7488z m-482.0992-0.0512l-5.7856 1.7408C135.68 379.2384 51.2 445.184 51.2 512c0 67.7888 87.04 134.7072 219.7504 172.7488A983.2448 983.2448 0 0 1 256 512c0-60.6208 5.2736-118.784 14.9504-172.8zM512 307.2c-66.6112 0-129.536 6.7584-186.2656 18.5344A919.8592 919.8592 0 0 0 307.2 512c0 54.9376 4.608 107.3152 12.8 155.8016l66.816-66.816a153.6 153.6 0 1 1 250.4704-0.0512l66.7136 66.816c8.192-48.4352 12.8-100.864 12.8-155.7504 0-66.6112-6.7584-129.536-18.5344-186.2656A919.8592 919.8592 0 0 0 512 307.2z m0-256C444.2112 51.2 377.2928 138.24 339.2512 270.9504A983.2448 983.2448 0 0 1 512 256c60.6208 0 118.784 5.2736 172.8 14.9504C646.7072 138.24 579.84 51.2 512 51.2zM153.6 51.2a102.4 102.4 0 1 1 0 204.8 102.4 102.4 0 0 1 0-204.8z m716.8 0a102.4 102.4 0 1 1 0 204.8 102.4 102.4 0 0 1 0-204.8z" fill="#252B3A" p-id="59101"></path><path d="M153.6 819.2a51.2 51.2 0 1 1 0 102.4 51.2 51.2 0 0 1 0-102.4z m716.8 0a51.2 51.2 0 1 1 0 102.4 51.2 51.2 0 0 1 0-102.4z m-358.4-409.6a102.4 102.4 0 1 1 0 204.8 102.4 102.4 0 0 1 0-204.8zM153.6 102.4a51.2 51.2 0 1 1 0 102.4 51.2 51.2 0 0 1 0-102.4z m716.8 0a51.2 51.2 0 1 1 0 102.4 51.2 51.2 0 0 1 0-102.4z" fill="#4C84FF" p-id="59102"></path></svg>