<?xml version="1.0" standalone="no"?><!DOCTYPE svg PUBLIC "-//W3C//DTD SVG 1.1//EN" "http://www.w3.org/Graphics/SVG/1.1/DTD/svg11.dtd"><svg t="1739609412646" class="icon" viewBox="0 0 1051 1024" version="1.1" xmlns="http://www.w3.org/2000/svg" p-id="56794" xmlns:xlink="http://www.w3.org/1999/xlink" width="16.421875" height="16"><path d="M158.129274 0.95696a33.179774 33.179774 0 0 0-33.179774 33.179774v512.904011C52.036946 562.884087 0 628.137643 0 703.676929c0 75.483986 52.064596 140.765192 124.92185 156.608535a32.35028 32.35028 0 0 0 0 3.262678v127.244434a33.179774 33.179774 0 1 0 66.387198 0v-130.341213c72.884904-15.843342 124.97715-81.096898 124.97715-156.636185 0-75.483986-52.092246-140.765192-124.97715-156.608534V34.136734A33.179774 33.179774 0 0 0 158.156924 0.95696z m0 795.650987c-37.106048-0.02765-70.53467-22.672846-84.719023-57.428659a93.760512 93.760512 0 0 1 20.018463-101.225962 90.801982 90.801982 0 0 1 99.98172-19.963164 92.903368 92.903368 0 0 1 56.405616 85.935616c-0.165899 51.207452-41.17057 92.62687-91.714426 92.682169zM557.08841 142.523997v-108.387263a33.179774 33.179774 0 0 0-66.387198 0v108.442563c-72.857254 15.870992-124.92185 81.124548-124.92185 156.636184s52.064596 140.765192 124.949499 156.636184v457.493788a33.179774 33.179774 0 1 0 66.387199 0V455.796366c72.884904-15.870992 124.92185-81.124548 124.92185-156.636185s-52.036946-140.765192-124.92185-156.636184z m58.479352 156.636184c0 51.290401-41.032321 92.903368-91.686776 92.903368-50.599156 0-91.659126-41.612967-91.659127-92.903368s41.032321-92.875718 91.659127-92.875718c50.599156 0.0553 91.631477 41.612967 91.686776 92.875718zM1050.692852 703.925778c0.165899-75.566936-51.953997-140.903441-124.8942-156.608535V34.081435a33.124475 33.124475 0 1 0-66.2213 0V547.040745c-72.884904 15.843342-124.97715 81.096898-124.97715 156.636184 0 75.483986 52.092246 140.765192 124.97715 156.608535a32.35028 32.35028 0 0 0 0 3.262678v127.244434a33.179774 33.179774 0 1 0 66.387198 0v-130.341213c72.829605-15.760393 124.866551-81.041599 124.728302-156.497936z m-157.714527 92.682169a91.659126 91.659126 0 0 1-84.857273-57.235111 93.760512 93.760512 0 0 1 19.824915-101.33656 90.801982 90.801982 0 0 1 100.00937-20.073764 92.903368 92.903368 0 0 1 56.516215 85.990915c-0.193549 51.096852-41.032321 92.460971-91.493227 92.62687z" fill="#04B2A2" p-id="56795"></path></svg>