<?xml version="1.0" standalone="no"?><!DOCTYPE svg PUBLIC "-//W3C//DTD SVG 1.1//EN" "http://www.w3.org/Graphics/SVG/1.1/DTD/svg11.dtd"><svg t="1739609426004" class="icon" viewBox="0 0 1024 1024" version="1.1" xmlns="http://www.w3.org/2000/svg" p-id="57110" xmlns:xlink="http://www.w3.org/1999/xlink" width="16" height="16"><path d="M440.106667 598.229333a117.333333 117.333333 0 0 1 5.802666-165.845333c27.904-26.026667 105.130667-58.282667 238.634667-101.717333a32 32 0 0 1 39.552 42.410666c-52.650667 130.133333-90.24 204.928-118.144 230.954667a117.333333 117.333333 0 0 1-165.845333-5.802667z m49.493333-119.04a53.333333 53.333333 0 1 0 72.704 78.037334c14.506667-13.525333 40.576-62.421333 75.434667-143.274667-83.072 29.098667-133.674667 51.712-148.181334 65.28z" fill="#7AA2F3" p-id="57111"></path><path d="M512 970.666667C258.688 970.666667 53.333333 765.312 53.333333 512S258.688 53.333333 512 53.333333 970.666667 258.688 970.666667 512 765.312 970.666667 512 970.666667z m0-64a394.666667 394.666667 0 1 0 0-789.333334 394.666667 394.666667 0 0 0 0 789.333334z" fill="#7F8391" p-id="57112"></path></svg>