<?xml version="1.0" standalone="no"?><!DOCTYPE svg PUBLIC "-//W3C//DTD SVG 1.1//EN" "http://www.w3.org/Graphics/SVG/1.1/DTD/svg11.dtd"><svg t="1739609380649" class="icon" viewBox="0 0 1024 1024" version="1.1" xmlns="http://www.w3.org/2000/svg" p-id="54325" xmlns:xlink="http://www.w3.org/1999/xlink" width="16" height="16"><path d="M960 698L757.1 562.7v84.5h-145l-88.8-108.6-65.5 80.1 91 111.3c9.6 11.8 24 18.6 39.2 18.6h169v84.6L960 698zM283.8 275.3H114.7C86.7 275.3 64 298 64 326c0 28 22.7 50.7 50.7 50.7h145l88.8 108.5 65.5-80.1-91-111.3c-9.6-11.6-24-18.5-39.2-18.5" fill="#030000" p-id="54326"></path><path d="M960 326L757.1 190.8v84.5h-169c-15.3 0-29.6 6.8-39.2 18.6L259.7 647.2h-145c-28 0-50.7 22.7-50.7 50.7 0 28 22.7 50.7 50.7 50.7h169.1c15.2 0 29.6-6.8 39.3-18.6l289-353.3h145v84.6L960 326z" fill="#030000" p-id="54327"></path></svg>